# xmcd
# Track frame offsets:
# 150
# 14141
# 24415
# 33951
# 44701
# 56392
# 67587
# 77176
# 88156
# 106057
#
# Disc length: 1593 seconds
# Revision: 0
# Processed by: cddbd v1.4PL0 Copyright (c) Steve Scherf et al.
# Submitted via: VisiTrax 2.9.5.181 - For more info visit www.synapsa.com
#
DISCID=7706370a
DTITLE=Charley Pride - Burgers and Fries
DYEAR=1900
DGENRE=
TTITLE0=Burgers And Fries
TTITLE1=The Best In The World
TTITLE2=Whose Arms Are You In Tonight
TTITLE3=Nothing's Prettier Than Rose Is
TTITLE4=Mem'ries
TTITLE5=When I Stop Leaving (I'll Be Gone)
TTITLE6=I Can See The Lovin' In Your Eyes
TTITLE7=One On One
TTITLE8=Where Do I Put Her Memory
TTITLE9=You Snap Your Fingers (And I'm Back In Your Hands)
EXTD=
EXTT0=
EXTT1=
EXTT2=
EXTT3=
EXTT4=
EXTT5=
EXTT6=
EXTT7=
EXTT8=
EXTT9=
PLAYORDER=
